<?xml version="1.0" standalone="no"?>
<!DOCTYPE svg PUBLIC "-//W3C//DTD SVG 20010904//EN"
 "http://www.w3.org/TR/2001/REC-SVG-20010904/DTD/svg10.dtd">
<svg version="1.0" xmlns="http://www.w3.org/2000/svg"
 width="1024.000000pt" height="1024.000000pt" viewBox="0 0 1024.000000 1024.000000"
 preserveAspectRatio="xMidYMid meet">
<metadata>
Created by potrace 1.11, written by Peter Selinger 2001-2013
</metadata>
<g transform="translate(0.000000,1024.000000) scale(0.100000,-0.100000)"
fill="#000000" stroke="none">
<path d="M5399 9716 c-2 -2 -58 -6 -124 -10 -66 -4 -133 -8 -150 -10 -16 -2
-61 -6 -100 -10 -38 -4 -81 -9 -95 -11 -14 -2 -45 -6 -70 -10 -222 -31 -643
-120 -800 -169 -8 -3 -51 -16 -95 -29 -313 -96 -682 -255 -980 -422 -78 -44
-249 -148 -255 -155 -3 -4 -31 -22 -62 -41 -32 -18 -58 -37 -58 -41 0 -5 -5
-8 -10 -8 -6 0 -16 -5 -23 -10 -7 -6 -55 -43 -107 -82 -281 -210 -526 -447
-750 -723 -36 -44 -68 -82 -71 -85 -12 -11 -123 -166 -188 -262 -290 -436
-479 -842 -625 -1348 -37 -129 -89 -386 -110 -545 -3 -22 -8 -60 -12 -85 -16
-117 -28 -347 -28 -530 1 -141 11 -414 18 -475 2 -16 7 -59 10 -95 7 -78 15
-142 22 -190 27 -184 23 -162 49 -300 7 -41 23 -118 35 -170 12 -52 23 -103
25 -113 2 -10 7 -27 10 -37 3 -10 8 -27 10 -37 90 -372 273 -819 469 -1143
260 -429 579 -785 962 -1073 96 -72 357 -247 368 -247 3 0 34 -17 69 -38 94
-58 414 -213 562 -272 222 -90 501 -181 655 -215 8 -1 34 -8 57 -14 46 -13 66
-17 284 -60 86 -16 179 -33 206 -36 27 -3 59 -7 70 -9 18 -4 75 -12 153 -21
14 -2 63 -6 110 -10 47 -4 94 -9 105 -11 132 -25 967 -25 1126 1 13 2 56 6 94
10 39 3 79 8 90 10 11 3 36 7 55 10 43 6 81 13 145 25 28 6 59 12 70 14 191
37 540 149 721 232 29 13 56 24 59 24 12 0 320 157 410 209 249 143 529 336
704 483 237 201 475 453 643 683 4 5 18 24 31 40 13 17 58 82 101 145 42 63
80 120 84 125 15 19 129 210 162 270 18 33 43 78 55 100 63 115 54 155 -51
232 -38 27 -80 56 -94 63 -14 7 -27 16 -30 20 -4 6 -83 60 -204 142 -23 15
-45 31 -51 36 -5 4 -58 41 -116 81 -115 79 -154 90 -202 58 -22 -14 -115 -158
-166 -255 -8 -15 -17 -29 -20 -32 -3 -3 -33 -45 -66 -94 -152 -227 -289 -392
-480 -580 -331 -325 -635 -489 -1079 -582 -250 -52 -706 -65 -961 -28 -200 29
-489 149 -693 286 -204 137 -428 353 -599 578 -320 420 -522 911 -628 1525 -3
17 -7 50 -11 75 -3 25 -7 56 -9 69 -3 14 -7 54 -11 90 -4 36 -8 80 -10 96 -26
251 -26 971 1 1290 2 28 7 82 10 120 3 39 8 90 11 115 2 25 7 63 9 85 3 22 7
67 11 99 3 33 8 69 10 80 2 12 7 45 10 75 3 30 7 57 9 61 2 3 6 26 10 50 38
271 147 681 252 950 45 116 166 366 201 417 11 16 34 52 52 81 140 227 358
449 525 535 158 81 301 129 435 144 85 10 338 10 415 0 73 -10 188 -49 210
-71 9 -9 19 -16 23 -16 10 -1 84 -70 110 -104 12 -16 22 -40 22 -53 0 -34 -44
-214 -87 -353 -19 -63 -55 -178 -78 -255 -52 -170 -90 -349 -112 -525 -13
-105 -9 -418 6 -480 23 -99 62 -212 93 -274 152 -301 526 -565 938 -661 79
-18 230 -45 290 -52 147 -16 512 -9 650 13 89 14 272 59 349 86 222 77 422
229 537 406 20 31 44 68 53 82 31 44 90 179 120 270 25 76 50 184 77 330 3 19
7 125 9 235 2 156 -1 226 -15 317 -10 65 -21 126 -24 135 -3 10 -7 29 -10 43
-10 53 -58 207 -88 279 -128 311 -349 588 -651 816 -40 30 -76 59 -82 63 -89
71 -483 283 -590 318 -27 9 -54 20 -60 24 -15 11 -236 85 -357 119 -119 35
-317 80 -453 105 -49 9 -101 18 -115 21 -14 3 -50 7 -80 10 -30 4 -62 8 -70
10 -8 2 -43 7 -77 10 -34 3 -71 8 -82 10 -11 2 -62 7 -113 10 -51 4 -111 9
-133 12 -45 5 -770 14 -776 9z"/>
</g>
</svg>
